<svg xmlns="http://www.w3.org/2000/svg" xmlns:xlink="http://www.w3.org/1999/xlink" version="1.1" id="katman_1" x="0px" y="0px" viewBox="0 0 225.013 225.402" enable-background="new 0 0 225.013 225.402" xml:space="preserve">
<path fill="#ffffff" d="M111.929,211.226c-54.006,0-97.782-43.783-97.782-97.783c0-54.006,43.776-97.789,97.782-97.789  c54.006,0,97.782,43.783,97.782,97.789C209.711,167.442,165.935,211.226,111.929,211.226 M111.929,4.791  C51.921,4.791,3.278,53.435,3.278,113.443c0,60.001,48.644,108.644,108.651,108.644c60.007,0,108.651-48.644,108.651-108.644  C220.58,53.435,171.936,4.791,111.929,4.791"/>
<path fill="#ffffff" d="M125.425,153.948l-0.007-0.028l-20.646,35.664L50.952,99.432h24.53c5.779,0,11.091,3.31,13.819,8.615  l15.47,30.144l12.405-21.256l43.783-75.213c-13.941-9.583-30.833-15.198-49.031-15.198c-47.868,0-86.67,38.802-86.67,86.663  c0,47.869,38.801,86.67,86.67,86.67s86.67-38.801,86.67-86.67c0-20.223-6.935-38.837-18.55-53.582L125.425,153.948z"/>
</svg>